# xmcd
#
# Track frame offsets:
#	150
#	19580
#	44166
#	68187
#	99038
#	128483
#	147237
#	170047
#	188271
#	219502
#	253139
#	284371
#
# Disc length: 4074 seconds
#
# Revision: 0
# Processed by: cddbd v1.5.2PL0 Copyright (c) Steve Scherf et al.
# Submitted via: EZCDAudioConverter 2.1.7.1
#
DISCID=a90fe80c
DTITLE=V/A - The Green Collection 2/2
DYEAR=1900
DGENRE=
TTITLE0=Knight One - Shimmer
TTITLE1=Kraak and Smaak - Ghostnote
TTITLE2=Satin Jackets featuring Patrick Baker - Fall Apart
TTITLE3=Duncan Gray - Beeech
TTITLE4=Man Power - Skattejag
TTITLE5=Blende - Sparkle
TTITLE6=Nteibint - Baby
TTITLE7=Alexander Skancke featuring Hewrote - Found My Place
TTITLE8=Mees Dierdorp - Aviar Alom
TTITLE9=Vinny Villbass featuring Ost - Lust For Wong
TTITLE10=Trulz and Robin featuring Camilla Luna - Me To You
TTITLE11=Horixon featuring Jacques Teal - Great Things
EXTD=
EXTT0=
EXTT1=
EXTT2=
EXTT3=
EXTT4=
EXTT5=
EXTT6=
EXTT7=
EXTT8=
EXTT9=
EXTT10=
EXTT11=
PLAYORDER=
